<svg xmlns="http://www.w3.org/2000/svg" viewBox="0 0 514.8 383.6"><defs><style>.cls-1{fill:purple;}.cls-2{isolation:isolate;}.cls-3{fill:#fff;}</style></defs><g id="Layer_2" data-name="Layer 2"><g id="Layer_1-2" data-name="Layer 1"><ellipse class="cls-1" cx="257.4" cy="191.8" rx="257.4" ry="191.8"/><g class="cls-2"><path class="cls-3" d="M87.52,182.65q-1.32-.12-2.94-.18t-2.94-.06q-1.32,0-2.94.06t-2.94.18l-3.12.24a18.27,18.27,0,0,0,2.22-1.56,7.84,7.84,0,0,0,1.74-2,9.39,9.39,0,0,0,1.08-2.88,20.51,20.51,0,0,0,.36-4.2V107.77q0-4.56-1-6.54a8.15,8.15,0,0,0-3-3.3l2.64.24q1.2.12,2.52.18t2.4.06q1.08,0,2.34-.06t2.46-.18l2.76-.24a6.4,6.4,0,0,0-2.94,3.12,16.61,16.61,0,0,0-1,6.72v64.44q0,4.92,1.44,7a13,13,0,0,0,4,3.66Z"/></g><g class="cls-2"><path class="cls-3" d="M151.75,114.31a24.11,24.11,0,0,1-4.68,7.38,22.75,22.75,0,0,1-7.08,5.16,20.32,20.32,0,0,1-8.76,1.92,34.7,34.7,0,0,1-5.34-.42q-2.7-.42-5.1-.9t-4.2-.9a13.08,13.08,0,0,0-2.64-.42,1.6,1.6,0,0,0-1,.36,3.48,3.48,0,0,1-.84-1.26,19.72,19.72,0,0,1-.6-2.7,28.11,28.11,0,0,1-.36-3.06q-.12-1.74-.24-3.3l-.24-3.6a14.13,14.13,0,0,0,1.2,3.36,24.13,24.13,0,0,0,1.86,3.06,15,15,0,0,0,2.94,3.06,18.26,18.26,0,0,0,7.08,3.42,31.73,31.73,0,0,0,7.68,1,15.91,15.91,0,0,0,5.46-1.08,19,19,0,0,0,5.4-3.06,17.45,17.45,0,0,0,4.14-4.86,12.62,12.62,0,0,0,1.68-6.48,18.86,18.86,0,0,0-2.64-10.14,34.43,34.43,0,0,0-6.6-7.74,71.56,71.56,0,0,0-8.64-6.48,92.22,92.22,0,0,1-8.64-6.24,32.24,32.24,0,0,1-6.6-7.26,16.77,16.77,0,0,1-2.64-9.42,23.59,23.59,0,0,1,1.38-8,20.18,20.18,0,0,1,4-6.72,19.26,19.26,0,0,1,14.58-6.36,29.6,29.6,0,0,1,7.74.9,63.62,63.62,0,0,1,7.38,2.58l1.14.48a9.55,9.55,0,0,0,1.5.48q-.12,1-.24,1.8a9.91,9.91,0,0,0-.12,1.62v1.62q0,.84-.06,1.8t-.06,1.92V58q-.36-1.08-.84-2.16t-.78-2q-.42-1-.78-1.74a14.71,14.71,0,0,0-6.84-5.76,21.69,21.69,0,0,0-8.64-1.92,14,14,0,0,0-5.88,1.2,14.42,14.42,0,0,0-7.5,7.86,14.71,14.71,0,0,0-1,5.46,14,14,0,0,0,2.7,8.34,41.24,41.24,0,0,0,6.66,7.2q4,3.42,8.7,6.78a86.45,86.45,0,0,1,8.7,7,39,39,0,0,1,6.66,8,17.75,17.75,0,0,1,2.7,9.6A22.31,22.31,0,0,1,151.75,114.31Z"/></g><g class="cls-2"><path class="cls-3" d="M218.85,106.28V112H203.13l-.6-8.52a32.82,32.82,0,0,1-6.36,4.92,43.48,43.48,0,0,1-7.44,3.3,29.52,29.52,0,0,1-9.72,1.5,27.59,27.59,0,0,1-8.22-1.14,18.46,18.46,0,0,1-6.24-3.24,14.86,14.86,0,0,1-4-5,14.67,14.67,0,0,1-1.44-6.54,13.58,13.58,0,0,1,2.46-8,18.66,18.66,0,0,1,7.68-5.88,49.83,49.83,0,0,1,13.44-3.6,139.13,139.13,0,0,1,19.74-1.2V77.24a15.66,15.66,0,0,0-.78-4.74,11.68,11.68,0,0,0-2.7-4.5,14.83,14.83,0,0,0-5.34-3.42A23.08,23.08,0,0,0,185,63.2a26.78,26.78,0,0,0-7,.9q-3.36.9-6,1.86-3.12,1.32-5.76,2.76L164,63.2a56.37,56.37,0,0,1,6.24-2.88,55.11,55.11,0,0,1,6.72-2,35.13,35.13,0,0,1,8-.9q12,0,18.12,5.52t6.12,15.84v27.48Zm-39.12,1.2a25.06,25.06,0,0,0,8.4-1.44,34.92,34.92,0,0,0,7.26-3.48,24.42,24.42,0,0,0,5.1-4.2q1.92-2.16,1.92-3.6V84.32q-5.88,0-12.3.36a67.84,67.84,0,0,0-11.76,1.62,23.85,23.85,0,0,0-8.82,3.84,8.28,8.28,0,0,0-3.48,7,8.73,8.73,0,0,0,3.9,7.62A16.78,16.78,0,0,0,179.73,107.48Z"/></g><g class="cls-2"><path class="cls-3" d="M155.31,177.37l9.61-.87L159,111.22l-9.6.87-.52-5.76,16.44-1.48,2.95,32.76a20.57,20.57,0,0,1,4.45-5.73,25.69,25.69,0,0,1,6.15-4.24,24.58,24.58,0,0,1,9.21-2.46,26.78,26.78,0,0,1,11.49,1.26,24.18,24.18,0,0,1,8.77,5.38,26.51,26.51,0,0,1,5.78,8.44,34.91,34.91,0,0,1,1.92,21.36A26.33,26.33,0,0,1,211.9,171a23.39,23.39,0,0,1-7.68,6.79A27.19,27.19,0,0,1,193.14,181a24.32,24.32,0,0,1-9.32-.73,27.84,27.84,0,0,1-6.74-3,19.77,19.77,0,0,1-5.63-4.69l.22,9.17-15.84,1.43Zm33.33-46.43a21.48,21.48,0,0,0-8.26,2.37,19.76,19.76,0,0,0-6.19,5.1,20.44,20.44,0,0,0-3.69,7.35A27.55,27.55,0,0,0,172.14,164a20.45,20.45,0,0,0,4.94,6.57,18.86,18.86,0,0,0,7.06,3.84,22.94,22.94,0,0,0,8.72.79,18.54,18.54,0,0,0,7.77-2.4,17.93,17.93,0,0,0,5.71-5.17,21.18,21.18,0,0,0,3.27-7.31A28.9,28.9,0,0,0,208,142.68a21.37,21.37,0,0,0-4.59-6.66,18.3,18.3,0,0,0-6.6-4.12A18.71,18.71,0,0,0,188.64,130.94Z"/></g><g class="cls-2"><path class="cls-3" d="M279,118q0,1-.06,1.86t-.18,1.86a18.52,18.52,0,0,0-.12,2H228.44q1.68,9.36,8,14.1t16.08,4.74a32.23,32.23,0,0,0,9.18-1.26,50.11,50.11,0,0,0,7.5-2.82,41.31,41.31,0,0,0,7.08-4.2l3,5.4a50.4,50.4,0,0,1-7.68,4.32,51.35,51.35,0,0,1-8.64,3,43.51,43.51,0,0,1-11,1.32,34,34,0,0,1-12.84-2.28,28.78,28.78,0,0,1-9.54-6.12,25.34,25.34,0,0,1-5.88-8.88,28.62,28.62,0,0,1-2-10.56A27.18,27.18,0,0,1,224,109.32a26.76,26.76,0,0,1,6.3-8.82,29.11,29.11,0,0,1,9.54-5.82,33.48,33.48,0,0,1,12-2.1,29.13,29.13,0,0,1,10.86,2,26.54,26.54,0,0,1,8.58,5.4A24.83,24.83,0,0,1,279,118Zm-6.36.12a22.37,22.37,0,0,0-1.86-8,19.3,19.3,0,0,0-4.44-6.24,19.79,19.79,0,0,0-6.66-4.08,23.39,23.39,0,0,0-8.28-1.44,26,26,0,0,0-7.8,1.2,22.21,22.21,0,0,0-7,3.66,21.55,21.55,0,0,0-8.22,14.94Z"/></g><g class="cls-2"><path class="cls-3" d="M347.79,158.58c-.21.73-.41,1.47-.61,2.23a14.25,14.25,0,0,1-1.31,2.77,3.38,3.38,0,0,1-2.41,1.25c-2.37.39-4.92.76-7.66,1.13s-5.57.73-8.51,1.09l-8.76,1.08q-4.35.52-8.26,1.17c-.48.08-1.2.22-2.18.42s-2,.42-3,.67l-3.63.84a16.54,16.54,0,0,0,3.24-4.3,9.58,9.58,0,0,0,.55-5.93L294.77,97.06a22.63,22.63,0,0,0-2-6.79,6.15,6.15,0,0,0-3.9-3.07l2.76-.21c.8,0,1.62-.12,2.45-.22s1.61-.2,2.32-.32,1.5-.27,2.36-.45,1.68-.37,2.46-.58,1.79-.46,2.8-.71a5.71,5.71,0,0,0-2.44,4,22.07,22.07,0,0,0,.27,7.19l11.4,69.51,4.93-.32c1.45-.08,3-.23,4.73-.47s3.34-.49,4.92-.75c1.26-.21,2.72-.47,4.37-.78s3.31-.68,5-1.12a44.7,44.7,0,0,0,4.74-1.51,13.4,13.4,0,0,0,3.74-2.07,12,12,0,0,0,1.45-1.51,17.05,17.05,0,0,0,1.36-2.11l-.3,1.87A13.42,13.42,0,0,1,347.79,158.58Z"/></g><g class="cls-2"><path class="cls-3" d="M442.2,143.88a13.2,13.2,0,0,1-1,2.58,5.92,5.92,0,0,1-1.56,2,3.5,3.5,0,0,1-2.28.78q-4.2,0-9.42-.12t-10.14-.3l-8.82-.3q-3.9-.12-5.22-.12-.72,0-2.22.06t-3.06.18l-3.72.24a15.64,15.64,0,0,0,2.52-1.8,6.94,6.94,0,0,0,1.68-2.22,11.56,11.56,0,0,0,.9-3.06,27.63,27.63,0,0,0,.3-4.44V74.58q0-2.16-.12-3.72a10.89,10.89,0,0,0-.54-2.76,8,8,0,0,0-1.2-2.22,10.07,10.07,0,0,0-2.1-2l2.64.24q1.2.12,2.52.18t2.4.06q1.44,0,5-.12l7.5-.24,7.32-.24q3.36-.12,4.44-.12a3.44,3.44,0,0,1,2.22.72,5.8,5.8,0,0,1,1.5,1.86,10.21,10.21,0,0,1,.9,2.4,19.42,19.42,0,0,1,.42,2.34,14.32,14.32,0,0,0-1.8-1.92A5.48,5.48,0,0,0,429.12,68a14.72,14.72,0,0,0-3.36-.42q-2-.06-5.16-.06H407.4V103h17.88a11.67,11.67,0,0,0,4-.6,8.23,8.23,0,0,0,2.58-1.44,7.18,7.18,0,0,0,1.68-2.16,18.52,18.52,0,0,0-.12,2,12.74,12.74,0,0,0-.12,1.8v3.6a15.47,15.47,0,0,0,.12,1.92q.12,1.08.24,2A6.33,6.33,0,0,0,432,108.3a10.27,10.27,0,0,0-2.58-1.32,11.67,11.67,0,0,0-4-.6h-18V145.5l7.32.24q3.12.12,6.36.12h5.64q2.28,0,4.62-.12a27.12,27.12,0,0,0,4.5-.6,17.13,17.13,0,0,0,4-1.38,8.56,8.56,0,0,0,3-2.46Q442.56,142.5,442.2,143.88Z"/></g><g class="cls-2"><path class="cls-3" d="M389.06,139.53c-.37.79-.74,1.61-1.12,2.45a16.36,16.36,0,0,1-2,2.94,4,4,0,0,1-3,1q-4.2,0-9-.14c-3.22-.1-6.55-.21-10-.35L353.57,145c-3.4-.14-6.65-.21-9.73-.21-.56,0-1.42,0-2.59.07s-2.35.11-3.57.21l-4.34.28a19.33,19.33,0,0,0,4.55-4.34,11.17,11.17,0,0,0,1.75-6.72V58.68a26.31,26.31,0,0,0-1-8.19,7.16,7.16,0,0,0-3.92-4.27c1.12.09,2.2.18,3.22.28s1.89.16,2.87.21,1.89.07,2.73.07,1.78,0,2.8-.07,2-.12,2.94-.21,2.15-.19,3.36-.28a6.6,6.6,0,0,0-3.57,4.13,26.18,26.18,0,0,0-1,8.33v82.18l5.74.56c1.68.18,3.53.3,5.53.35s3.95.07,5.81.07c1.5,0,3.22,0,5.18-.07s3.95-.17,5.95-.35a54.57,54.57,0,0,0,5.74-.84,16.13,16.13,0,0,0,4.69-1.68,13.71,13.71,0,0,0,2-1.47,20,20,0,0,0,2-2.17l-.7,2.1A13.6,13.6,0,0,1,389.06,139.53Z"/></g><g class="cls-2"><path class="cls-3" d="M95.46,200.58a6.72,6.72,0,0,0-1.82,2.1,10.77,10.77,0,0,0-1,3.22,32,32,0,0,0-.35,5.32v88.2a29.64,29.64,0,0,1-.77,7.42,12.12,12.12,0,0,1-3,5.32,24.56,24.56,0,0,1-6,4.41,30.69,30.69,0,0,1-9.38,3.15,21.54,21.54,0,0,0,8.33-8.61,26.08,26.08,0,0,0,2.45-11.69v-88.2c0-2.24,0-4-.14-5.32a7.9,7.9,0,0,0-.77-3.15,5.67,5.67,0,0,0-1.82-2,30.6,30.6,0,0,0-3.29-2c1.31.09,2.57.18,3.78.28,1,.09,2.13.16,3.29.21s2.17.07,3,.07,1.71,0,2.87-.07,2.31-.12,3.43-.21,2.52-.19,3.92-.28C97.1,199.41,96.21,200,95.46,200.58Z"/></g><g class="cls-2"><path class="cls-3" d="M233.83,269.07q-1.32-.12-2.94-.18t-2.94-.06q-1.08,0-2.4.06t-2.52.18l-2.88.24q1-.84,1.74-1.62a6.58,6.58,0,0,0,1.32-2,12.35,12.35,0,0,0,.84-3.06,31.69,31.69,0,0,0,.3-4.86V224.67H173.71v33.12q0,3,.18,4.86a10.48,10.48,0,0,0,.66,3,5.48,5.48,0,0,0,1.32,1.92q.84.78,2,1.74l-2.4-.24q-1.08-.12-2.52-.18t-2.76-.06q-1.32,0-2.82.06t-2.94.18l-3.36.24a10.39,10.39,0,0,0,4.08-3.9q1.32-2.34,1.32-8V196q0-3.12-.18-5a11.29,11.29,0,0,0-.66-3.06,6.37,6.37,0,0,0-1.2-2,11.92,11.92,0,0,0-1.92-1.62l2.64.24q1.2.12,2.52.18t2.4.06q1.08,0,2.28-.06t2.28-.18l2.52-.24a18.36,18.36,0,0,0-1.56,1.74,8.3,8.3,0,0,0-1.08,2,11.29,11.29,0,0,0-.66,3.06q-.18,1.86-.18,4.86v24.72h50.64V196.83q0-3-.12-4.92a14.56,14.56,0,0,0-.54-3.3,7.51,7.51,0,0,0-1.14-2.34,10.86,10.86,0,0,0-1.92-1.92l2.52.24q1.08.12,2.4.18t2.4.06q1.2,0,2.58-.06t2.46-.18l2.52-.24a14.86,14.86,0,0,0-2,1.62,5.16,5.16,0,0,0-1.2,2,13.48,13.48,0,0,0-.6,3.12q-.18,1.92-.18,4.92v61.56q0,5.64,1.5,8.1a9.51,9.51,0,0,0,3.9,3.66Z"/></g><g class="cls-2"><path class="cls-3" d="M247,187h15.72l.72,9.12a20.47,20.47,0,0,1,4.8-5,28,28,0,0,1,6-3.54,21,21,0,0,1,8.64-1.62,23.57,23.57,0,0,1,7.14,1.08,16.28,16.28,0,0,1,5.94,3.3,15.89,15.89,0,0,1,4,5.64,20.05,20.05,0,0,1,1.5,8.1v30.6h9.84v5.76H286.27v-5.76h8.64V205.73q0-7.2-3.48-10.62t-9.6-3.42a16.63,16.63,0,0,0-7.32,1.62,22.62,22.62,0,0,0-5.82,4,19.59,19.59,0,0,0-3.84,4.92,9.86,9.86,0,0,0-1.38,4.5v28h8.28v5.76H247v-5.76h9.6V192.77H247Z"/></g><g class="cls-2"><path class="cls-3" d="M129.2,216.73a35.36,35.36,0,0,1,13.29,1.1,29.33,29.33,0,0,1,10.27,5.24,26,26,0,0,1,6.8,8.34,29.1,29.1,0,0,1,1.92,21.36,25.67,25.67,0,0,1-5.2,9.42,28.61,28.61,0,0,1-9.18,6.94,39.72,39.72,0,0,1-26.16,2.35,28.53,28.53,0,0,1-10.26-5.18,26.4,26.4,0,0,1-6.86-8.34,28.32,28.32,0,0,1-1.92-21.36,26.42,26.42,0,0,1,5.26-9.42,29.29,29.29,0,0,1,9.17-7A35.34,35.34,0,0,1,129.2,216.73Zm.52,5.76a28,28,0,0,0-10.16,2.72,23.56,23.56,0,0,0-7.25,5.49,20.64,20.64,0,0,0-4.16,7.52,22.09,22.09,0,0,0-.91,8.67,21.73,21.73,0,0,0,2.44,8.31,20.75,20.75,0,0,0,5.43,6.59,23.41,23.41,0,0,0,8.11,4.11,28.28,28.28,0,0,0,10.48.87A27.65,27.65,0,0,0,143.8,264a24.22,24.22,0,0,0,7.25-5.49,19.7,19.7,0,0,0,4.17-7.45,22.64,22.64,0,0,0,.86-8.61,22.91,22.91,0,0,0-2.39-8.37,19.59,19.59,0,0,0-5.44-6.65,24.14,24.14,0,0,0-8.11-4.11A27.47,27.47,0,0,0,129.72,222.49Z"/></g><g class="cls-2"><path class="cls-3" d="M286.64,294.56h5.88l.48,7.2a17.63,17.63,0,0,0,5,3.24,34.47,34.47,0,0,0,15,3.12,36.84,36.84,0,0,0,6.72-.6,21.64,21.64,0,0,0,5.76-1.86,11.55,11.55,0,0,0,4-3.18,7.37,7.37,0,0,0,1.5-4.68q0-4.2-3.18-5.88a23.27,23.27,0,0,0-8-2.28q-4.8-.6-10.32-.84a51.78,51.78,0,0,1-10.32-1.44,17.91,17.91,0,0,1-8-4.14q-3.18-2.94-3.18-9.06a12.71,12.71,0,0,1,1.86-6.84,16.55,16.55,0,0,1,5-5.1A24.31,24.31,0,0,1,302.3,259,34.34,34.34,0,0,1,311,258a36.63,36.63,0,0,1,7.38.66q3.18.66,5.46,1.38a30.85,30.85,0,0,1,4.56,2l.48-3.48H335v18h-6.12l-.6-8A36.19,36.19,0,0,0,324,266a33.13,33.13,0,0,0-5.22-1.74,28,28,0,0,0-6.9-.78q-7.56,0-12.42,2.64t-4.86,7.56q0,4.44,3.18,6.24a21.58,21.58,0,0,0,8,2.4q4.8.6,10.38.84a55.17,55.17,0,0,1,10.38,1.38,18.09,18.09,0,0,1,8,4q3.18,2.82,3.18,8.82a13.47,13.47,0,0,1-1.86,7.14,15.89,15.89,0,0,1-5.16,5.16,24.5,24.5,0,0,1-7.8,3.12,44.22,44.22,0,0,1-9.78,1,41.11,41.11,0,0,1-8.4-.78,47.19,47.19,0,0,1-6.36-1.74A27,27,0,0,1,293,308.6l-.48,4.56h-5.88Z"/></g><g class="cls-2"><path class="cls-3" d="M415.46,233.22a44.83,44.83,0,0,1-19.23,25.1,36.91,36.91,0,0,1-13.59,5.33,48.44,48.44,0,0,1-18-.26,41.08,41.08,0,0,1-15.45-6.71,42.58,42.58,0,0,1-11.61-12.56,49,49,0,0,1-6.41-18,43.8,43.8,0,0,1,.59-18.22,43.21,43.21,0,0,1,7.07-15.08,42.21,42.21,0,0,1,26.87-16.39q11.23-1.84,20.09,1A40.52,40.52,0,0,1,401,186a45.52,45.52,0,0,1,10.26,13.64,57,57,0,0,1,5.27,16.16A37.55,37.55,0,0,1,415.46,233.22Zm-11.57-32a50,50,0,0,0-10.06-13.18,37.61,37.61,0,0,0-13-8A29.42,29.42,0,0,0,366,178.82a33.62,33.62,0,0,0-13.89,5.38,31.67,31.67,0,0,0-9.35,10.05,37.9,37.9,0,0,0-4.7,13.6,50.51,50.51,0,0,0,.19,16A48,48,0,0,0,344,240.14a45.4,45.4,0,0,0,10.38,12.46A39.81,39.81,0,0,0,368.06,260a33.37,33.37,0,0,0,15.49,1,30.27,30.27,0,0,0,10.81-4.14,32,32,0,0,0,9.29-8.64,35.92,35.92,0,0,0,5.72-12.92,43.36,43.36,0,0,0,.23-17.12A53.73,53.73,0,0,0,403.89,201.25Z"/></g><g class="cls-2"><path class="cls-3" d="M395.64,180.21h15.72l.72,9.12a20.47,20.47,0,0,1,4.8-5,28,28,0,0,1,6-3.54,21,21,0,0,1,8.64-1.62,23.57,23.57,0,0,1,7.14,1.08,16.28,16.28,0,0,1,5.94,3.3,15.89,15.89,0,0,1,4,5.64,20.05,20.05,0,0,1,1.5,8.1v30.6H460v5.76H434.88v-5.76h8.64V198.93q0-7.2-3.48-10.62t-9.6-3.42a16.63,16.63,0,0,0-7.32,1.62,22.62,22.62,0,0,0-5.82,4,19.59,19.59,0,0,0-3.84,4.92,9.86,9.86,0,0,0-1.38,4.5v28h8.28v5.76H395.64v-5.76h9.6V186h-9.6Z"/></g></g></g></svg>