<?xml version="1.0" encoding="utf-8"?>
<!-- Generator: Adobe Illustrator 25.4.8, SVG Export Plug-In . SVG Version: 6.00 Build 0)  -->
<svg version="1.1" id="Layer_1" xmlns="http://www.w3.org/2000/svg" xmlns:xlink="http://www.w3.org/1999/xlink" x="0px" y="0px"
	 viewBox="0 0 514.8 383.6" style="enable-background:new 0 0 514.8 383.6;" xml:space="preserve">
<style type="text/css">
	.st0{fill:#C092C0;}
	.st1{fill:#FFFFFF;}
	.st2{font-family:'Shango-Regular';}
	.st3{font-size:120px;}
	.st4{font-family:'ColonMonoW01-Light';}
	.st5{font-size:120.485px;}
	.st6{font-size:140px;}
	.st7{fill:#DE8FF9;}
	.st8{fill:#AB1258;}
	.st9{enable-background:new    ;}
</style>
<g id="Layer_2_00000091000625403145097680000015000999962254743486_">
	<g id="Layer_1-2">
		<ellipse class="st0" cx="257.4" cy="191.8" rx="257.4" ry="191.8"/>
		<text transform="matrix(1 0 0 1 77.27 184.95)" class="st1 st2 st3">I</text>
		<text transform="matrix(1 0 0 1 115.94 130.35)" class="st1 st2 st3">s</text>
		<text transform="matrix(1 0 0 1 160.6 114.58)" class="st1 st4 st3">a</text>
		<text transform="matrix(0.996 -8.963770e-02 8.963770e-02 0.996 160.3393 186.0599)" class="st1 st4 st5">b</text>
		<text transform="matrix(1 0 0 1 223.35 149.72)" class="st1 st4 st3">e</text>
		<text transform="matrix(0.9868 -0.1619 0.1619 0.9868 306.07 173.98)" class="st1 st2 st3">l</text>
		<text transform="matrix(1 0 0 1 399.43 150.92)" class="st1 st2 st3">e</text>
		<text transform="matrix(1 0 0 1 337.27 147.3201)" class="st1 st2 st6">l</text>
		<text transform="matrix(1 0 0 1 81.47 299.86)" class="st1 st2 st6">J</text>
		<text transform="matrix(1 0 0 1 165.74 271.37)" class="st1 st2 st3">h</text>
		<text transform="matrix(1 0 0 1 250.82 242.95)" class="st1 st4 st3">n</text>
		<text transform="matrix(0.996 -8.963770e-02 8.963770e-02 0.996 106.9396 277.1095)" class="st1 st4 st5">o</text>
		<text transform="matrix(1 0 0 1 284.31 315.1)" class="st1 st4 st3">s</text>
		<text transform="matrix(0.9868 -0.1619 0.1619 0.9868 342.17 271.85)" class="st1 st2 st3">o</text>
		<text transform="matrix(1 0 0 1 399.43 236.15)" class="st1 st4 st3">n</text>
	</g>
</g>
<g id="Layer_2_00000005944791928263058620000014247262324577027761_">
	<g id="Layer_1-2_00000132803617074328646560000006102687701364327304_">
		<ellipse class="st0" cx="272.9" cy="-271.8" rx="257.4" ry="191.8"/>
		<text transform="matrix(1 0 0 1 92.7854 -278.6818)" class="st1 st2 st3">I</text>
		<text transform="matrix(1 0 0 1 131.4554 -333.2817)" class="st1 st2 st3">s</text>
		<text transform="matrix(1 0 0 1 176.1154 -349.0518)" class="st1 st4 st3">a</text>
		<text transform="matrix(0.996 -8.963770e-02 8.963770e-02 0.996 175.8548 -277.5718)" class="st1 st4 st5">b</text>
		<text transform="matrix(1 0 0 1 238.8655 -313.9117)" class="st1 st4 st3">e</text>
		<text transform="matrix(0.9868 -0.1619 0.1619 0.9868 321.5854 -289.6518)" class="st1 st2 st3">l</text>
		<text transform="matrix(1 0 0 1 414.9454 -312.7117)" class="st1 st2 st3">e</text>
		<text transform="matrix(1 0 0 1 352.7855 -316.3116)" class="st1 st2 st6">l</text>
		<text transform="matrix(1 0 0 1 96.9854 -163.7717)" class="st1 st2 st6">J</text>
		<text transform="matrix(1 0 0 1 181.2554 -192.2617)" class="st1 st2 st3">h</text>
		<text transform="matrix(1 0 0 1 266.3354 -220.6818)" class="st1 st4 st3">n</text>
		<text transform="matrix(0.996 -8.963770e-02 8.963770e-02 0.996 122.4551 -186.5222)" class="st1 st4 st5">o</text>
		<text transform="matrix(1 0 0 1 299.8254 -148.5317)" class="st1 st4 st3">s</text>
		<text transform="matrix(0.9868 -0.1619 0.1619 0.9868 357.6855 -191.7817)" class="st1 st2 st3">o</text>
		<text transform="matrix(1 0 0 1 414.9454 -227.4817)" class="st1 st4 st3">n</text>
	</g>
</g>
<ellipse class="st7" cx="217.4" cy="-871.6" rx="257.4" ry="191.8"/>
<g id="Layer_1-2_00000173156116391328192020000007927741963838172333_">
	<ellipse class="st0" cx="-342.8" cy="183.2" rx="257.4" ry="191.8"/>
	<text transform="matrix(1 0 0 1 -522.9679 176.3101)" class="st1 st2 st3">I</text>
	<text transform="matrix(1 0 0 1 -484.2979 121.71)" class="st1 st2 st3">s</text>
	<text transform="matrix(1 0 0 1 -439.6378 105.9399)" class="st1 st4 st3">a</text>
	<text transform="matrix(0.996 -8.963770e-02 8.963770e-02 0.996 -439.8985 177.4199)" class="st1 st4 st5">b</text>
	<text transform="matrix(1 0 0 1 -376.8878 141.08)" class="st1 st4 st3">e</text>
	<text transform="matrix(0.9868 -0.1619 0.1619 0.9868 -294.1679 165.34)" class="st1 st2 st3">l</text>
	<text transform="matrix(1 0 0 1 -200.8079 142.2802)" class="st1 st2 st3">e</text>
	<text transform="matrix(1 0 0 1 -262.9678 138.6801)" class="st1 st2 st6">l</text>
	<text transform="matrix(1 0 0 1 -518.7678 291.22)" class="st1 st2 st6">J</text>
	<text transform="matrix(1 0 0 1 -434.4979 262.73)" class="st1 st2 st3">h</text>
	<text transform="matrix(1 0 0 1 -349.4178 234.3101)" class="st1 st4 st3">n</text>
	<text transform="matrix(0.996 -8.963770e-02 8.963770e-02 0.996 -493.2982 268.4696)" class="st1 st4 st5">o</text>
	<text transform="matrix(1 0 0 1 -315.9279 306.46)" class="st1 st4 st3">s</text>
	<text transform="matrix(0.9868 -0.1619 0.1619 0.9868 -258.0678 263.2101)" class="st1 st2 st3">o</text>
	<text transform="matrix(1 0 0 1 -200.8079 227.5101)" class="st1 st4 st3">n</text>
	<text transform="matrix(1 0 0 1 -441.1395 -172.2075)" class="st1 st2 st3">I</text>
	<text transform="matrix(1 0 0 1 -402.4695 -226.8076)" class="st1 st2 st3">s</text>
	<text transform="matrix(1 0 0 1 -357.8095 -242.5776)" class="st1 st4 st3">a</text>
	<text transform="matrix(0.996 -8.963770e-02 8.963770e-02 0.996 -358.0702 -171.0977)" class="st1 st4 st5">b</text>
	<text transform="matrix(1 0 0 1 -295.0594 -207.4375)" class="st1 st4 st3">e</text>
	<text transform="matrix(0.9868 -0.1619 0.1619 0.9868 -212.3396 -183.1776)" class="st1 st2 st3">l</text>
	<text transform="matrix(1 0 0 1 -118.9795 -206.2375)" class="st1 st2 st3">e</text>
	<text transform="matrix(1 0 0 1 -181.1395 -209.8374)" class="st1 st2 st6">l</text>
	<text transform="matrix(1 0 0 1 -436.9395 -57.2975)" class="st1 st2 st6">J</text>
	<text transform="matrix(1 0 0 1 -352.6695 -85.7875)" class="st1 st2 st3">h</text>
	<text transform="matrix(1 0 0 1 -267.5895 -114.2076)" class="st1 st4 st3">n</text>
	<text transform="matrix(0.996 -8.963770e-02 8.963770e-02 0.996 -411.4698 -80.048)" class="st1 st4 st5">o</text>
	<text transform="matrix(1 0 0 1 -234.0995 -42.0576)" class="st1 st4 st3">s</text>
	<text transform="matrix(0.9868 -0.1619 0.1619 0.9868 -176.2395 -85.3075)" class="st1 st2 st3">o</text>
	<text transform="matrix(1 0 0 1 -118.9795 -121.0074)" class="st1 st4 st3">n</text>
</g>
<text transform="matrix(1 0 0 1 28.4442 -880.9927)" class="st1 st2 st3">I</text>
<text transform="matrix(1 0 0 1 67.1142 -935.5928)" class="st1 st2 st3">s</text>
<text transform="matrix(1 0 0 1 111.7742 -951.3628)" class="st1 st4 st3">a</text>
<text transform="matrix(0.996 -8.963770e-02 8.963770e-02 0.996 111.5135 -879.8831)" class="st1 st4 st5">b</text>
<text transform="matrix(1 0 0 1 174.5242 -916.2227)" class="st1 st4 st3">e</text>
<text transform="matrix(0.9868 -0.1619 0.1619 0.9868 257.2441 -891.963)" class="st1 st2 st3">l</text>
<text transform="matrix(1 0 0 1 350.6042 -915.0229)" class="st1 st2 st3">e</text>
<text transform="matrix(1 0 0 1 288.4442 -918.6226)" class="st1 st2 st6">l</text>
<text transform="matrix(1 0 0 1 32.6442 -766.083)" class="st1 st2 st6">J</text>
<text transform="matrix(1 0 0 1 116.9142 -794.5728)" class="st1 st2 st3">h</text>
<text transform="matrix(1 0 0 1 201.9942 -822.9929)" class="st1 st4 st3">n</text>
<text transform="matrix(0.996 -8.963770e-02 8.963770e-02 0.996 58.1138 -788.8334)" class="st1 st4 st5">o</text>
<text transform="matrix(1 0 0 1 235.4842 -750.8428)" class="st1 st4 st3">s</text>
<text transform="matrix(0.9868 -0.1619 0.1619 0.9868 293.3442 -794.0928)" class="st1 st2 st3">o</text>
<text transform="matrix(1 0 0 1 350.6042 -829.7927)" class="st1 st4 st3">n</text>
<ellipse class="st8" cx="-458.2" cy="-901.1" rx="257.4" ry="191.8"/>
<ellipse class="st8" cx="709" cy="-591.5" rx="257.4" ry="191.8"/>
<text transform="matrix(1 0 0 1 520.1439 -600.8634)" class="st1 st2 st3">I</text>
<text transform="matrix(1 0 0 1 558.8139 -655.4635)" class="st1 st2 st3">s</text>
<text transform="matrix(1 0 0 1 603.4739 -671.2335)" class="st1 st4 st3">a</text>
<text transform="matrix(0.996 -8.963770e-02 8.963770e-02 0.996 603.2132 -599.7535)" class="st1 st4 st5">b</text>
<text transform="matrix(1 0 0 1 666.2239 -636.0934)" class="st1 st4 st3">e</text>
<text transform="matrix(0.9868 -0.1619 0.1619 0.9868 748.9438 -611.8335)" class="st1 st2 st3">l</text>
<text transform="matrix(1 0 0 1 842.304 -634.8933)" class="st1 st2 st3">e</text>
<text transform="matrix(1 0 0 1 780.1439 -638.4933)" class="st1 st2 st6">l</text>
<text transform="matrix(1 0 0 1 524.3439 -485.9535)" class="st1 st2 st6">J</text>
<text transform="matrix(1 0 0 1 608.6139 -514.4435)" class="st1 st2 st3">h</text>
<text transform="matrix(1 0 0 1 693.6939 -542.8635)" class="st1 st4 st3">n</text>
<text transform="matrix(0.996 -8.963770e-02 8.963770e-02 0.996 549.8135 -508.7039)" class="st1 st4 st5">o</text>
<text transform="matrix(1 0 0 1 727.1839 -470.7135)" class="st1 st4 st3">s</text>
<text transform="matrix(0.9868 -0.1619 0.1619 0.9868 785.0439 -513.9634)" class="st1 st2 st3">o</text>
<text transform="matrix(1 0 0 1 842.304 -549.6636)" class="st1 st4 st3">n</text>
<ellipse class="st7" cx="789.3" cy="-1045.4" rx="257.4" ry="191.8"/>
<g class="st9">
	<path class="st1" d="M619.5-1054.5c-0.9-0.1-1.9-0.1-2.9-0.2s-2.1-0.1-2.9-0.1c-0.9,0-1.9,0-2.9,0.1s-2.1,0.1-2.9,0.2l-3.1,0.2
		c0.8-0.5,1.5-1,2.2-1.6c0.7-0.6,1.3-1.2,1.7-2c0.5-0.8,0.8-1.8,1.1-2.9c0.2-1.1,0.4-2.5,0.4-4.2v-64.4c0-3-0.3-5.2-1-6.5
		c-0.6-1.3-1.6-2.4-3-3.3l2.6,0.2c0.8,0.1,1.6,0.1,2.5,0.2s1.7,0.1,2.4,0.1c0.7,0,1.5,0,2.3-0.1c0.8,0,1.7-0.1,2.5-0.2
		c0.9-0.1,1.8-0.2,2.8-0.2c-1.3,0.6-2.3,1.7-2.9,3.1c-0.7,1.4-1,3.7-1,6.7v64.4c0,3.3,0.5,5.6,1.4,7c1,1.4,2.3,2.6,4,3.7
		L619.5-1054.5z"/>
</g>
<g class="st9">
	<path class="st1" d="M683.7-1122.9c-1.1,2.8-2.7,5.2-4.7,7.4c-2,2.2-4.4,3.9-7.1,5.2s-5.6,1.9-8.8,1.9c-1.8,0-3.5-0.1-5.3-0.4
		s-3.5-0.6-5.1-0.9c-1.6-0.3-3-0.6-4.2-0.9c-1.2-0.3-2.1-0.4-2.6-0.4c-0.3,0-0.6,0.1-1,0.4c-0.4-0.4-0.7-0.8-0.8-1.3
		c-0.2-0.4-0.4-1.3-0.6-2.7c-0.2-0.9-0.3-1.9-0.4-3.1s-0.2-2.3-0.2-3.3l-0.2-3.6c0.2,1.1,0.6,2.2,1.2,3.4c0.5,1,1.1,2,1.9,3.1
		s1.7,2.1,2.9,3.1c2,1.6,4.4,2.7,7.1,3.4s5.3,1,7.7,1c1.7,0,3.5-0.4,5.5-1.1c2-0.7,3.8-1.7,5.4-3.1c1.6-1.3,3-2.9,4.1-4.9
		s1.7-4.1,1.7-6.5c0-3.9-0.9-7.3-2.6-10.1s-4-5.4-6.6-7.7c-2.6-2.3-5.5-4.5-8.6-6.5s-6-4.1-8.6-6.2c-2.6-2.2-4.8-4.6-6.6-7.3
		c-1.8-2.7-2.6-5.8-2.6-9.4c0-2.8,0.5-5.5,1.4-8s2.2-4.8,4-6.7c1.7-1.9,3.8-3.5,6.3-4.6c2.5-1.2,5.2-1.7,8.3-1.7
		c3,0,5.5,0.3,7.7,0.9c2.2,0.6,4.7,1.5,7.4,2.6c0.4,0.2,0.8,0.3,1.1,0.5c0.4,0.2,0.9,0.3,1.5,0.5c-0.1,0.6-0.2,1.2-0.2,1.8
		c-0.1,0.5-0.1,1-0.1,1.6v1.6c0,0.6,0,1.2-0.1,1.8s-0.1,1.3-0.1,1.9v2.2c-0.2-0.7-0.5-1.4-0.8-2.2c-0.2-0.6-0.5-1.3-0.8-2
		c-0.3-0.7-0.5-1.3-0.8-1.7c-1.6-2.6-3.9-4.5-6.8-5.8s-5.8-1.9-8.6-1.9c-2.2,0-4.1,0.4-5.9,1.2c-1.8,0.8-3.3,1.9-4.6,3.2
		c-1.3,1.4-2.3,2.9-2.9,4.6s-1,3.5-1,5.5c0,3,0.9,5.8,2.7,8.3c1.8,2.5,4,4.9,6.7,7.2s5.5,4.5,8.7,6.8c3.2,2.2,6.1,4.6,8.7,7
		c2.6,2.4,4.9,5.1,6.7,8s2.7,6.1,2.7,9.6C685.4-1128.4,684.8-1125.6,683.7-1122.9z"/>
</g>
<g class="st9">
	<path class="st1" d="M750.8-1130.9v5.8h-15.7l-0.6-8.5c-1.8,1.8-4,3.5-6.4,4.9c-2.1,1.2-4.6,2.3-7.4,3.3c-2.9,1-6.1,1.5-9.7,1.5
		c-3,0-5.8-0.4-8.2-1.1c-2.4-0.8-4.5-1.8-6.2-3.2c-1.7-1.4-3.1-3.1-4-5c-1-2-1.4-4.1-1.4-6.5c0-3,0.8-5.7,2.5-8
		c1.6-2.3,4.2-4.3,7.7-5.9c3.5-1.6,8-2.8,13.4-3.6c5.5-0.8,12.1-1.2,19.7-1.2v-1.3c0-1.5-0.3-3.1-0.8-4.7c-0.5-1.6-1.4-3.1-2.7-4.5
		c-1.3-1.4-3.1-2.5-5.3-3.4c-2.3-0.9-5.1-1.4-8.6-1.4c-2.4,0-4.7,0.3-7,0.9c-2.2,0.6-4.2,1.2-6,1.9c-2.1,0.9-4,1.8-5.8,2.8l-2.3-5.5
		c1.9-1,4-2,6.2-2.9c1.9-0.7,4.2-1.4,6.7-2c2.6-0.6,5.2-0.9,8-0.9c8,0,14,1.8,18.1,5.5c4.1,3.7,6.1,9,6.1,15.8v27.5H750.8z
		 M711.7-1129.7c2.9,0,5.7-0.5,8.4-1.4c2.7-1,5.1-2.1,7.3-3.5c2.1-1.4,3.8-2.8,5.1-4.2c1.3-1.4,1.9-2.6,1.9-3.6v-10.4
		c-3.9,0-8,0.1-12.3,0.4c-4.3,0.2-8.2,0.8-11.8,1.6c-3.6,0.8-6.5,2.1-8.8,3.8c-2.3,1.7-3.5,4.1-3.5,7c0,3.3,1.3,5.8,3.9,7.6
		S707.8-1129.7,711.7-1129.7z"/>
</g>
<g class="st9">
	<path class="st1" d="M687.3-1059.8l9.6-0.9L691-1126l-9.6,0.9l-0.5-5.8l16.4-1.5l2.9,32.8c1.1-2.1,2.6-4,4.4-5.7
		c1.6-1.5,3.6-2.9,6.2-4.2c2.5-1.3,5.6-2.1,9.2-2.5c4.2-0.4,8.1,0,11.5,1.3c3.4,1.2,6.3,3,8.8,5.4c2.4,2.4,4.4,5.2,5.8,8.4
		c1.4,3.3,2.3,6.8,2.6,10.5c0.3,3.8,0.1,7.4-0.7,10.8c-0.8,3.5-2.2,6.6-4.2,9.3c-2,2.8-4.5,5-7.7,6.8c-3.1,1.8-6.8,2.9-11.1,3.2
		c-3.6,0.3-6.7,0.1-9.3-0.7c-2.6-0.8-4.9-1.8-6.7-3c-2.2-1.3-4.1-2.8-5.6-4.7l0.2,9.2l-15.8,1.4L687.3-1059.8z M720.6-1106.2
		c-3,0.3-5.8,1.1-8.3,2.4c-2.5,1.3-4.5,3-6.2,5.1c-1.7,2.1-2.9,4.5-3.7,7.3c-0.8,2.8-1,5.9-0.7,9.3c0.3,3.4,1.1,6.4,2.4,9
		c1.3,2.6,2.9,4.8,4.9,6.6c2,1.8,4.4,3,7.1,3.8c2.7,0.8,5.6,1.1,8.7,0.8c2.9-0.3,5.5-1.1,7.8-2.4c2.3-1.3,4.2-3.1,5.7-5.2
		c1.5-2.1,2.6-4.5,3.3-7.3c0.7-2.8,0.9-5.7,0.6-8.9c-0.3-3.2-1-6.1-2.2-8.7c-1.2-2.6-2.7-4.8-4.6-6.7c-1.9-1.8-4.1-3.2-6.6-4.1
		C726.3-1106.2,723.5-1106.5,720.6-1106.2z"/>
</g>
<g class="st9">
	<path class="st1" d="M810.9-1119.2c0,0.6,0,1.3-0.1,1.9c0,0.6-0.1,1.2-0.2,1.9c-0.1,0.7-0.1,1.4-0.1,2h-50.2
		c1.1,6.2,3.8,10.9,8,14.1c4.2,3.2,9.6,4.7,16.1,4.7c3.3,0,6.3-0.4,9.2-1.3c2.8-0.8,5.3-1.8,7.5-2.8c2.6-1.2,4.9-2.6,7.1-4.2l3,5.4
		c-2.3,1.6-4.9,3-7.7,4.3c-2.4,1.1-5.3,2.1-8.6,3c-3.4,0.9-7,1.3-11,1.3c-4.8,0-9.1-0.8-12.8-2.3c-3.8-1.5-6.9-3.6-9.5-6.1
		c-2.6-2.6-4.6-5.5-5.9-8.9s-2-6.9-2-10.6c0-4.1,0.8-7.8,2.3-11.2c1.5-3.4,3.6-6.3,6.3-8.8c2.7-2.5,5.9-4.4,9.5-5.8
		c3.7-1.4,7.7-2.1,12-2.1c3.9,0,7.5,0.7,10.9,2c3.3,1.3,6.2,3.1,8.6,5.4c2.4,2.3,4.3,5,5.6,8.1
		C810.2-1126,810.9-1122.7,810.9-1119.2z M804.5-1119c-0.2-3-0.8-5.6-1.9-8c-1.1-2.4-2.6-4.5-4.4-6.2c-1.9-1.8-4.1-3.1-6.7-4.1
		c-2.6-1-5.3-1.4-8.3-1.4c-2.6,0-5.2,0.4-7.8,1.2c-2.6,0.8-4.9,2-7,3.7c-2.1,1.6-3.9,3.7-5.4,6.2c-1.5,2.5-2.4,5.4-2.8,8.8H804.5z"
		/>
</g>
<g class="st9">
	<path class="st1" d="M879.7-1078.6c-0.2,0.7-0.4,1.5-0.6,2.2c-0.5,1.2-0.9,2.1-1.3,2.8c-0.4,0.6-1.2,1.1-2.4,1.2
		c-2.4,0.4-4.9,0.8-7.7,1.1c-2.7,0.4-5.6,0.7-8.5,1.1c-2.9,0.4-5.9,0.7-8.8,1.1c-2.9,0.4-5.7,0.7-8.3,1.2c-0.5,0.1-1.2,0.2-2.2,0.4
		c-1,0.2-2,0.4-3,0.7c-1.2,0.3-2.4,0.6-3.6,0.8c1.4-1.4,2.5-2.8,3.2-4.3c0.8-1.5,0.9-3.5,0.5-5.9l-10.5-63.9c-0.5-3-1.1-5.3-2-6.8
		c-0.8-1.5-2.1-2.6-3.9-3.1c1-0.1,1.9-0.1,2.8-0.2c0.8-0.1,1.6-0.1,2.5-0.2c0.8-0.1,1.6-0.2,2.3-0.3c0.7-0.1,1.5-0.3,2.4-0.4
		c0.9-0.2,1.7-0.4,2.5-0.6c0.9-0.2,1.8-0.5,2.8-0.7c-1.3,0.9-2.1,2.2-2.4,4c-0.3,1.8-0.2,4.2,0.3,7.2l11.4,69.5
		c1.6-0.1,3.2-0.2,4.9-0.3c1.4-0.1,3-0.2,4.7-0.5c1.7-0.2,3.3-0.5,4.9-0.7c1.3-0.2,2.7-0.5,4.4-0.8c1.7-0.3,3.3-0.7,5-1.1
		c1.7-0.4,3.3-0.9,4.7-1.5s2.7-1.3,3.7-2.1c0.6-0.5,1.1-1,1.5-1.5c0.4-0.5,0.9-1.2,1.4-2.1l-0.3,1.9
		C880.1-1080,879.9-1079.3,879.7-1078.6z"/>
</g>
<g class="st9">
	<path class="st1" d="M974.1-1093.3c-0.2,0.9-0.6,1.8-1,2.6s-0.9,1.5-1.6,2c-0.6,0.5-1.4,0.8-2.3,0.8c-2.8,0-5.9,0-9.4-0.1
		c-3.5-0.1-6.9-0.2-10.1-0.3c-3.3-0.1-6.2-0.2-8.8-0.3s-4.3-0.1-5.2-0.1c-0.5,0-1.2,0-2.2,0.1s-2,0.1-3.1,0.2
		c-1.2,0.1-2.4,0.2-3.7,0.2c1-0.6,1.8-1.2,2.5-1.8c0.7-0.6,1.3-1.4,1.7-2.2s0.7-1.9,0.9-3.1c0.2-1.2,0.3-2.7,0.3-4.4v-62.8
		c0-1.4,0-2.7-0.1-3.7c-0.1-1-0.3-2-0.5-2.8c-0.3-0.8-0.7-1.5-1.2-2.2c-0.5-0.7-1.2-1.3-2.1-2l2.6,0.2c0.8,0.1,1.6,0.1,2.5,0.2
		c0.9,0,1.7,0.1,2.4,0.1c1,0,2.6,0,5-0.1c2.4-0.1,4.9-0.2,7.5-0.2c2.6-0.1,5.1-0.2,7.3-0.2c2.2-0.1,3.7-0.1,4.4-0.1
		c0.9,0,1.6,0.2,2.2,0.7c0.6,0.5,1.1,1.1,1.5,1.9c0.4,0.8,0.7,1.6,0.9,2.4c0.2,0.8,0.3,1.6,0.4,2.3c-0.6-0.8-1.2-1.4-1.8-1.9
		c-0.6-0.5-1.3-0.8-2.2-1.1s-2-0.4-3.4-0.4c-1.4,0-3.1-0.1-5.2-0.1h-13.2v35.5h17.9c1.6,0,2.9-0.2,4-0.6c1.1-0.4,1.9-0.9,2.6-1.4
		c0.7-0.6,1.3-1.4,1.7-2.2c-0.1,0.7-0.1,1.4-0.1,2c-0.1,0.6-0.1,1.2-0.1,1.8v1.7v1.9c0,0.6,0,1.3,0.1,1.9c0.1,0.7,0.2,1.4,0.2,2
		c-0.4-0.7-1-1.4-1.7-1.9c-0.6-0.5-1.5-0.9-2.6-1.3c-1.1-0.4-2.4-0.6-4-0.6h-18v39.1c2.5,0.1,4.9,0.2,7.3,0.2
		c2.1,0.1,4.2,0.1,6.4,0.1h5.6c1.5,0,3.1,0,4.6-0.1c1.6-0.1,3.1-0.3,4.5-0.6c1.4-0.3,2.8-0.8,4-1.4c1.2-0.6,2.2-1.4,3-2.5
		C974.6-1095.1,974.4-1094.2,974.1-1093.3z"/>
</g>
<g class="st9">
	<path class="st1" d="M921-1097.6c-0.4,0.8-0.7,1.6-1.1,2.5c-0.7,1.3-1.4,2.3-2,2.9s-1.6,1-3,1c-2.8,0-5.8,0-9-0.1
		c-3.2-0.1-6.6-0.2-10-0.4s-6.9-0.3-10.3-0.4c-3.4-0.1-6.6-0.2-9.7-0.2c-0.6,0-1.4,0-2.6,0.1c-1.2,0-2.4,0.1-3.6,0.2
		c-1.4,0.1-2.8,0.2-4.3,0.3c1.9-1.3,3.4-2.8,4.5-4.3c1.2-1.6,1.8-3.8,1.8-6.7v-75.6c0-3.5-0.3-6.3-1-8.2s-2-3.3-3.9-4.3
		c1.1,0.1,2.2,0.2,3.2,0.3c0.9,0.1,1.9,0.2,2.9,0.2c1,0,1.9,0.1,2.7,0.1s1.8,0,2.8-0.1c1,0,2-0.1,2.9-0.2c1-0.1,2.1-0.2,3.4-0.3
		c-1.7,0.7-2.9,2.1-3.6,4.1c-0.7,2-1,4.8-1,8.3v82.2c1.9,0.2,3.8,0.4,5.7,0.6c1.7,0.2,3.5,0.3,5.5,0.4s3.9,0.1,5.8,0.1
		c1.5,0,3.2,0,5.2-0.1s3.9-0.2,5.9-0.4c2-0.2,3.9-0.5,5.7-0.8c1.8-0.4,3.4-0.9,4.7-1.7c0.7-0.5,1.4-1,2-1.5c0.6-0.5,1.2-1.2,2-2.2
		l-0.7,2.1C921.7-1099.2,921.4-1098.4,921-1097.6z"/>
</g>
<g class="st9">
	<path class="st1" d="M627.4-1036.6c-0.7,0.6-1.4,1.3-1.8,2.1c-0.5,0.8-0.8,1.9-1.1,3.2c-0.2,1.3-0.3,3.1-0.3,5.3v88.2
		c0,3-0.3,5.5-0.8,7.4c-0.5,2-1.5,3.7-3,5.3c-1.4,1.5-3.4,3-6,4.4s-5.7,2.5-9.4,3.2c3.9-2.4,6.7-5.3,8.3-8.6
		c1.6-3.3,2.5-7.2,2.5-11.7v-88.2c0-2.2,0-4-0.1-5.3c-0.1-1.3-0.3-2.4-0.8-3.1c-0.4-0.8-1-1.5-1.8-2s-1.9-1.2-3.3-2
		c1.3,0.1,2.6,0.2,3.8,0.3c1,0.1,2.1,0.2,3.3,0.2c1.2,0,2.2,0.1,3,0.1c0.7,0,1.7,0,2.9-0.1c1.2,0,2.3-0.1,3.4-0.2
		c1.2-0.1,2.5-0.2,3.9-0.3C629-1037.8,628.2-1037.2,627.4-1036.6z"/>
</g>
<g class="st9">
	<path class="st1" d="M765.8-968.1c-0.9-0.1-1.9-0.1-2.9-0.2s-2.1-0.1-2.9-0.1c-0.7,0-1.5,0-2.4,0.1s-1.7,0.1-2.5,0.2
		c-0.9,0.1-1.8,0.2-2.9,0.2c0.6-0.6,1.2-1.1,1.7-1.6c0.5-0.5,1-1.2,1.3-2c0.4-0.8,0.6-1.8,0.8-3.1s0.3-2.9,0.3-4.9v-33.1h-50.6v33.1
		c0,2,0.1,3.6,0.2,4.9s0.3,2.2,0.7,3s0.8,1.4,1.3,1.9c0.6,0.5,1.2,1.1,2,1.7c-0.7-0.1-1.5-0.2-2.4-0.2c-0.7-0.1-1.6-0.1-2.5-0.2
		s-1.9-0.1-2.8-0.1s-1.8,0-2.8,0.1s-2,0.1-2.9,0.2l-3.4,0.2c1.8-1,3.2-2.3,4.1-3.9s1.3-4.2,1.3-8v-61.4c0-2.1-0.1-3.7-0.2-5
		c-0.1-1.2-0.3-2.3-0.7-3.1s-0.7-1.5-1.2-2c-0.5-0.5-1.1-1.1-1.9-1.6l2.6,0.2c0.8,0.1,1.6,0.1,2.5,0.2s1.7,0.1,2.4,0.1
		c0.7,0,1.5,0,2.3-0.1s1.6-0.1,2.3-0.2c0.9-0.1,1.7-0.2,2.5-0.2c-0.6,0.6-1.2,1.2-1.6,1.7c-0.4,0.5-0.8,1.2-1.1,2s-0.5,1.8-0.7,3.1
		c-0.1,1.2-0.2,2.9-0.2,4.9v24.7h50.6v-23.9c0-2,0-3.6-0.1-4.9s-0.3-2.4-0.5-3.3s-0.7-1.7-1.1-2.3c-0.5-0.6-1.1-1.3-1.9-1.9
		c0.8,0.1,1.6,0.2,2.5,0.2c0.7,0.1,1.5,0.1,2.4,0.2s1.7,0.1,2.4,0.1c0.8,0,1.7,0,2.6-0.1c0.9,0,1.7-0.1,2.5-0.2
		c0.9-0.1,1.7-0.2,2.5-0.2c-0.8,0.6-1.5,1.1-2,1.6c-0.5,0.5-0.9,1.2-1.2,2c-0.3,0.8-0.5,1.8-0.6,3.1s-0.2,2.9-0.2,4.9v61.6
		c0,3.8,0.5,6.5,1.5,8.1s2.3,2.9,3.9,3.7L765.8-968.1z"/>
</g>
<g class="st9">
	<path class="st1" d="M779-1050.2h15.7l0.7,9.1c1.3-1.9,2.9-3.6,4.8-5c1.6-1.3,3.6-2.5,6-3.5s5.3-1.6,8.6-1.6c2.5,0,4.9,0.4,7.1,1.1
		c2.3,0.7,4.3,1.8,5.9,3.3c1.7,1.5,3,3.4,4,5.6c1,2.3,1.5,5,1.5,8.1v30.6h9.8v5.8h-25.1v-5.8h8.6v-28.9c0-4.8-1.2-8.3-3.5-10.6
		c-2.3-2.3-5.5-3.4-9.6-3.4c-2.6,0-5.1,0.5-7.3,1.6c-2.2,1.1-4.2,2.4-5.8,4c-1.6,1.6-2.9,3.2-3.8,4.9c-0.9,1.7-1.4,3.2-1.4,4.5v28
		h8.3v5.8H779v-5.8h9.6v-41.9H779V-1050.2z"/>
</g>
<g class="st9">
	<path class="st1" d="M661.1-1020.4c4.9-0.4,9.3-0.1,13.3,1.1c4,1.2,7.4,2.9,10.3,5.2c2.9,2.3,5.1,5.1,6.8,8.3
		c1.7,3.2,2.7,6.7,3,10.5c0.3,3.8,0,7.4-1.1,10.9c-1.1,3.5-2.8,6.6-5.2,9.4s-5.5,5.1-9.2,6.9c-3.7,1.8-8,3-12.9,3.4
		c-4.9,0.4-9.3,0.1-13.3-1c-4-1.1-7.4-2.9-10.3-5.2c-2.9-2.3-5.2-5.1-6.9-8.3c-1.7-3.2-2.7-6.7-3.1-10.5c-0.3-3.8,0-7.4,1.1-10.9
		c1.1-3.5,2.9-6.6,5.3-9.4c2.4-2.8,5.5-5.1,9.2-7C652-1018.9,656.3-1020,661.1-1020.4z M661.7-1014.7c-3.8,0.3-7.2,1.3-10.2,2.7
		c-2.9,1.5-5.3,3.3-7.2,5.5c-1.9,2.2-3.3,4.7-4.2,7.5c-0.9,2.8-1.2,5.7-0.9,8.7c0.3,3,1.1,5.7,2.4,8.3c1.4,2.6,3.2,4.8,5.4,6.6
		c2.3,1.8,5,3.2,8.1,4.1c3.1,0.9,6.6,1.2,10.5,0.9c3.8-0.3,7.2-1.3,10.1-2.7c2.9-1.5,5.3-3.3,7.2-5.5c1.9-2.2,3.3-4.7,4.2-7.5
		c0.8-2.8,1.1-5.6,0.9-8.6c-0.3-3-1.1-5.8-2.4-8.4c-1.3-2.6-3.1-4.8-5.4-6.6c-2.3-1.8-5-3.2-8.1-4.1
		C669-1014.7,665.5-1015,661.7-1014.7z"/>
</g>
<g class="st9">
	<path class="st1" d="M818.6-942.6h5.9l0.5,7.2c1.4,1.3,3,2.4,5,3.2c1.7,0.8,3.8,1.5,6.2,2.2c2.5,0.6,5.4,1,8.8,1
		c2.3,0,4.6-0.2,6.7-0.6c2.2-0.4,4.1-1,5.8-1.9c1.7-0.8,3-1.9,4-3.2c1-1.3,1.5-2.8,1.5-4.7c0-2.8-1.1-4.8-3.2-5.9
		c-2.1-1.1-4.8-1.9-8-2.3c-3.2-0.4-6.6-0.7-10.3-0.8c-3.7-0.2-7.1-0.6-10.3-1.4c-3.2-0.8-5.9-2.2-8-4.1c-2.1-2-3.2-5-3.2-9.1
		c0-2.6,0.6-4.8,1.9-6.8c1.2-2,2.9-3.7,5-5.1c2.1-1.4,4.6-2.5,7.3-3.2c2.8-0.7,5.7-1.1,8.7-1.1c2.8,0,5.3,0.2,7.4,0.7
		c2.1,0.4,3.9,0.9,5.5,1.4c1.8,0.6,3.3,1.3,4.6,2l0.5-3.5h6.1v18h-6.1l-0.6-8c-1.3-0.9-2.7-1.7-4.3-2.5c-1.4-0.6-3.2-1.2-5.2-1.7
		c-2-0.5-4.3-0.8-6.9-0.8c-5,0-9.2,0.9-12.4,2.6c-3.2,1.8-4.9,4.3-4.9,7.6c0,3,1.1,5,3.2,6.2c2.1,1.2,4.8,2,8,2.4
		c3.2,0.4,6.7,0.7,10.4,0.8c3.7,0.2,7.2,0.6,10.4,1.4c3.2,0.8,5.9,2.1,8,4c2.1,1.9,3.2,4.8,3.2,8.8c0,2.7-0.6,5.1-1.9,7.1
		c-1.2,2-3,3.8-5.2,5.2c-2.2,1.4-4.8,2.4-7.8,3.1s-6.3,1-9.8,1c-3.1,0-5.9-0.3-8.4-0.8c-2.5-0.5-4.6-1.1-6.4-1.7
		c-2.1-0.8-3.8-1.7-5.3-2.6l-0.5,4.6h-5.9V-942.6z"/>
</g>
<g class="st9">
	<path class="st1" d="M947.4-1004c-1.7,5.5-4.2,10.3-7.5,14.5s-7.2,7.8-11.7,10.6c-4.5,2.8-9,4.6-13.6,5.3c-6.3,1-12.3,0.9-18-0.3
		c-5.7-1.2-10.9-3.4-15.4-6.7c-4.6-3.3-8.5-7.4-11.6-12.6s-5.3-11.1-6.4-18c-1.1-6.5-0.9-12.5,0.6-18.2c1.5-5.7,3.8-10.7,7.1-15.1
		c3.3-4.4,7.2-8,11.9-10.8c4.7-2.8,9.7-4.7,15-5.6c7.5-1.2,14.2-0.9,20.1,1c5.9,1.9,11,4.7,15.2,8.6c4.2,3.8,7.7,8.4,10.3,13.6
		c2.6,5.2,4.4,10.6,5.3,16.2C949.4-1015.2,949.1-1009.4,947.4-1004z M935.8-1035.9c-2.8-5.2-6.2-9.6-10.1-13.2
		c-3.9-3.6-8.3-6.3-13-8c-4.8-1.7-9.7-2.1-14.7-1.3c-5.4,0.9-10,2.7-13.9,5.4c-3.9,2.7-7,6.1-9.4,10c-2.3,4-3.9,8.5-4.7,13.6
		c-0.8,5.1-0.7,10.4,0.2,16c1,5.9,2.9,11.3,5.7,16.3c2.8,4.9,6.3,9.1,10.4,12.5c4.1,3.4,8.6,5.9,13.7,7.4c5,1.6,10.2,1.9,15.5,1
		c3.6-0.6,7.2-2,10.8-4.1c3.6-2.2,6.7-5,9.3-8.6c2.6-3.6,4.5-7.9,5.7-12.9s1.3-10.7,0.2-17.1
		C940.5-1025.1,938.6-1030.7,935.8-1035.9z"/>
</g>
<g class="st9">
	<path class="st1" d="M927.6-1057h15.7l0.7,9.1c1.3-1.9,2.9-3.6,4.8-5c1.6-1.3,3.6-2.5,6-3.5c2.4-1.1,5.3-1.6,8.6-1.6
		c2.5,0,4.9,0.4,7.1,1.1c2.3,0.7,4.3,1.8,5.9,3.3c1.7,1.5,3,3.4,4,5.6c1,2.3,1.5,5,1.5,8.1v30.6h9.8v5.8h-25.1v-5.8h8.6v-28.9
		c0-4.8-1.2-8.3-3.5-10.6c-2.3-2.3-5.5-3.4-9.6-3.4c-2.6,0-5.1,0.5-7.3,1.6c-2.2,1.1-4.2,2.4-5.8,4c-1.6,1.6-2.9,3.2-3.8,4.9
		c-0.9,1.7-1.4,3.2-1.4,4.5v28h8.3v5.8h-24.7v-5.8h9.6v-41.9h-9.6V-1057z"/>
</g>
</svg>
